<svg xmlns="http://www.w3.org/2000/svg" viewBox="0 0 100 120">
  <style>
    .bg   { fill: white; }
    .ink  { fill: #111; }
    .line { fill: white; stroke: #111; }
    .rib  { fill: white; stroke: #111; }
    @media (prefers-color-scheme: dark) {
      .bg   { fill: transparent; }
      .ink  { fill: white; }
      .line { fill: transparent; stroke: white; }
      .rib  { fill: transparent; stroke: white; }
    }
  </style>
  <rect class="bg" width="100" height="120" rx="12"/>
  <path class="line" d="M50,112 C29,112 13,97 13,81 C13,64 23,48 39,42 C45,39 56,39 64,43 C80,50 87,67 86,82 C85,98 69,112 50,112Z" stroke-width="4"/>
  <circle class="ink" cx="37" cy="76" r="5"/>
  <circle class="ink" cx="63" cy="76" r="5"/>
  <path class="line" d="M33,91 Q50,104 67,91" stroke-width="3.5" stroke-linecap="round"/>
  <path class="rib" d="M50,38 C44,23 22,26 27,37 C32,47 47,42 50,38Z" stroke-width="3.5" stroke-linejoin="round"/>
  <path class="rib" d="M50,38 C56,23 78,26 73,37 C68,47 53,42 50,38Z" stroke-width="3.5" stroke-linejoin="round"/>
  <ellipse class="ink" cx="50" cy="38" rx="6.5" ry="5"/>
</svg>
